<svg xmlns="http://www.w3.org/2000/svg" class="mu-icon mu-ic-image" width="24" height="24" viewBox="0 0 24 24">
<!-- MetalUI icon: Image. Hover: sun rises behind the ridge. Press (:active or data-state="press"): frame breathes, sun flares. Reduced motion: static. -->
<style>
.mu-icon{--sw:1.7;--k-spring:linear(0,0.0117,0.0435,0.0909,0.1499,0.217,0.2892,0.3637,0.4386,0.512,0.5826,0.6494,0.7114,0.7683,0.8196,0.8654,0.9056,0.9403,0.9698,0.9944,1.0145,1.0305,1.0428,1.0518,1.0579,1.0616,1.0632,1.063,1.0615,1.0588,1.0554,1.0513,1.0468,1.0422,1.0374,1.0327,1.0282,1.0238,1.0198,1.0161,1.0127,1.0096,1.007,1.0046,1);--k-soft:linear(0,0.0063,0.0235,0.0493,0.0818,0.1194,0.1605,0.2042,0.2492,0.2949,0.3406,0.3856,0.4297,0.4723,0.5133,0.5525,0.5898,0.625,0.6581,0.6892,0.7181,0.745,0.77,0.793,0.8142,0.8337,0.8515,0.8678,0.8826,0.896,0.9082,0.9192,0.9291,0.938,0.9459,0.953,0.9594,0.965,0.97,0.9745,0.9784,0.9818,0.9848,0.9874,1);--k-dur:.46s;flex:none;overflow:visible;fill:none;stroke:currentColor;stroke-width:var(--sw);stroke-linecap:round;stroke-linejoin:round}
.mu-icon *{transform-box:view-box}
.mu-icon .f{fill:currentColor;fill-opacity:calc(var(--duo,.14) * var(--mu-duo-k,1))}
.mu-icon .s{fill:currentColor;stroke:none}
.mu-icon .d{fill:currentColor;fill-opacity:calc(var(--duo,.14) * var(--mu-duo-k,1));stroke:none}
@media (prefers-reduced-motion:no-preference){
.mu-icon *{transition:transform var(--k-dur) var(--k-spring) var(--dl,0s),opacity .2s ease var(--dl,0s),d var(--k-dur) var(--k-spring) var(--dl,0s),stroke-dashoffset var(--k-dur) var(--k-spring) var(--dl,0s),fill-opacity .2s ease}
}
svg.mu-icon .sun{transform-origin:16.9px 11.9px} svg.mu-icon .fr{transform-origin:12px 12px}
@media (prefers-reduced-motion:no-preference){svg.mu-icon:is(:hover,[data-state~="hover"]) .sun{transform:translate(-.6px,-3.3px)} svg.mu-icon:is(:active,[data-state~="press"]) .fr{animation:img-f .36s cubic-bezier(.3,0,.2,1)} svg.mu-icon:is(:active,[data-state~="press"]) .sun{animation:img-s .4s cubic-bezier(.3,0,.2,1)} @keyframes img-f{40%{transform:scale(.94)}} @keyframes img-s{40%{transform:translate(-.6px,-3.3px) scale(1.3)}}}</style>
<defs><clipPath id="mu-image-in"><rect x="3.6" y="5.1" width="16.8" height="13.8" rx="2.6"/></clipPath><mask id="mu-image-sky" maskUnits="userSpaceOnUse" x="0" y="0" width="24" height="24"><rect width="24" height="24" fill="#fff" stroke="none"/><path d="M2 18.4 8.4 12a1.3 1.3 0 0 1 1.84 0L14.3 16l2-1.9a1.3 1.3 0 0 1 1.8 0L22 17.8V24H2Z" fill="#000" stroke="#000" stroke-width="3.9" stroke-linejoin="round"/></mask></defs><rect class="fr" x="2.8" y="4.3" width="18.4" height="15.4" rx="3.4"/><g clip-path="url(#mu-image-in)"><g mask="url(#mu-image-sky)"><circle class="sun s" cx="16.9" cy="11.9" r="1.85"/></g><path class="d" d="M2 18.4 8.4 12a1.3 1.3 0 0 1 1.84 0L14.3 16l2-1.9a1.3 1.3 0 0 1 1.8 0L22 17.8V24H2Z"/></g><path class="rg" d="M3.4 17 8.4 12a1.3 1.3 0 0 1 1.84 0L14.3 16l2-1.9a1.3 1.3 0 0 1 1.8 0l2.6 2.5"/>
</svg>
